<?xml version="1.0" encoding="utf-8"?>
<!-- Generator: Adobe Illustrator 16.0.3, SVG Export Plug-In . SVG Version: 6.00 Build 0)  -->
<!DOCTYPE svg PUBLIC "-//W3C//DTD SVG 1.1//EN" "http://www.w3.org/Graphics/SVG/1.1/DTD/svg11.dtd">
<svg version="1.1" id="Layer_1" xmlns="http://www.w3.org/2000/svg" xmlns:xlink="http://www.w3.org/1999/xlink" x="0px" y="0px"
	 width="44px" height="44px" viewBox="0 0 44 44" enable-background="new 0 0 44 44" xml:space="preserve">
<g>
	<g id="_x31_0_41_">
		<g>
			<path fill="currentColor" d="M29.861,14.139c-0.542-0.542-1.42-0.542-1.96,0l-5.908,5.908l-5.826-5.826
				c-0.538-0.538-1.408-0.538-1.944,0c-0.538,0.538-0.538,1.408,0,1.944l5.826,5.826l-5.866,5.866c-0.542,0.542-0.542,1.419,0,1.959
				c0.542,0.541,1.419,0.541,1.959,0l5.866-5.865l5.825,5.826c0.538,0.537,1.408,0.537,1.944,0c0.538-0.538,0.538-1.408,0-1.944
				l-5.826-5.826l5.909-5.908C30.402,15.558,30.402,14.68,29.861,14.139z M22,0C9.849,0,0,9.849,0,22c0,12.151,9.849,22,22,22
				c12.149,0,22-9.851,22-22S34.151,0,22,0z M22,41.25C11.369,41.25,2.75,32.632,2.75,22C2.75,11.369,11.369,2.75,22,2.75
				c10.632,0,19.25,8.619,19.25,19.25C41.25,32.632,32.632,41.25,22,41.25z"/>
		</g>
	</g>
</g>
</svg>
