<?xml version="1.0" encoding="utf-8"?>
<!-- Generator: Adobe Illustrator 16.0.3, SVG Export Plug-In . SVG Version: 6.00 Build 0)  -->
<!DOCTYPE svg PUBLIC "-//W3C//DTD SVG 1.1//EN" "http://www.w3.org/Graphics/SVG/1.1/DTD/svg11.dtd">
<svg version="1.1" id="Layer_1" xmlns="http://www.w3.org/2000/svg" xmlns:xlink="http://www.w3.org/1999/xlink" x="0px" y="0px"
	 width="32px" height="32px" viewBox="0 0 32 32" enable-background="new 0 0 32 32" xml:space="preserve">
<g>
	<g>
		<path fill="currentColor" d="M26.465,3.768h-4.271V0.991c0-0.559-0.451-0.991-1.01-0.991c-0.055,0-0.091,0.018-0.108,0.036
			C21.057,0.018,21.021,0,21.003,0H10.961h-0.072h-0.072c-0.559,0-0.992,0.433-0.992,0.991v2.776H5.535
			c-1.226,0-2.181,0.956-2.181,2.182v1.586v1.983h1.893v20.317C5.247,31.062,6.184,32,7.41,32h17.181
			c1.226,0,2.181-0.938,2.181-2.164V9.519h1.875V7.536V5.949C28.646,4.723,27.691,3.768,26.465,3.768z M11.808,1.983h8.383v1.785
			h-8.383V1.983z M24.771,29.836c0,0.127-0.056,0.181-0.181,0.181H7.41c-0.126,0-0.18-0.054-0.18-0.181V9.519h17.542V29.836z
			 M26.646,7.536H5.354V5.949c0-0.126,0.054-0.198,0.18-0.198h20.93c0.126,0,0.181,0.072,0.181,0.198V7.536L26.646,7.536z"/>
		<rect x="19.633" y="11.844" fill="currentColor" width="2.001" height="16.406"/>
		<rect x="15.018" y="11.844" fill="currentColor" width="2.001" height="16.406"/>
		<rect x="10.402" y="11.844" fill="currentColor" width="2.001" height="16.406"/>
	</g>
</g>
</svg>
