<?xml version="1.0" encoding="utf-8"?>
<!-- Generator: Adobe Illustrator 16.0.3, SVG Export Plug-In . SVG Version: 6.00 Build 0)  -->
<!DOCTYPE svg PUBLIC "-//W3C//DTD SVG 1.1//EN" "http://www.w3.org/Graphics/SVG/1.1/DTD/svg11.dtd">
<svg version="1.1" id="Layer_1" xmlns="http://www.w3.org/2000/svg" xmlns:xlink="http://www.w3.org/1999/xlink" x="0px" y="0px"
	 width="32px" height="32px" viewBox="0 0 32 32" enable-background="new 0 0 32 32" xml:space="preserve">
<g>
	<g>
		<path fill="currentColor" d="M20.128,0.344L0.55,19.923c-0.232,0.231-0.359,0.548-0.38,0.863l-0.147,9.969
			c0,0.338,0.126,0.653,0.379,0.885c0.232,0.232,0.569,0.338,0.885,0.338h0.021l9.673-0.084c0.337,0,0.653-0.105,0.885-0.338
			l19.747-19.747c0.485-0.485,0.485-1.286,0-1.792L21.92,0.323C21.414-0.141,20.613-0.141,20.128,0.344z M10.434,29.406
			l-7.861,0.105l0.126-8.177L15.766,8.268l7.903,7.902L10.434,29.406z M25.439,14.401l-7.883-7.903l3.478-3.477l7.882,7.903
			L25.439,14.401z"/>
	</g>
</g>
</svg>
