<?xml version="1.0" encoding="utf-8"?>
<!-- Generator: Adobe Illustrator 16.0.3, SVG Export Plug-In . SVG Version: 6.00 Build 0)  -->
<!DOCTYPE svg PUBLIC "-//W3C//DTD SVG 1.1//EN" "http://www.w3.org/Graphics/SVG/1.1/DTD/svg11.dtd">
<svg version="1.1" id="Layer_1" xmlns="http://www.w3.org/2000/svg" xmlns:xlink="http://www.w3.org/1999/xlink" x="0px" y="0px"
	 width="128px" height="128px" viewBox="0 0 128 128" enable-background="new 0 0 128 128" xml:space="preserve">
<g>
	<path fill="#FFFFFF" d="M37,19c18,0,36,0,53.99,0c0.029,16-0.01,31.99,0.02,47.99c8.66,0.01,17.33,0.01,26,0.02
		C116.99,81,116.99,95,117,109c-35.33,0-70.67,0-106.01,0c0.02-14,0.02-28,0.01-41.99C19.66,67,28.33,67,36.99,66.99
		C37.02,50.99,36.98,35,37,19z M41,23c0,27.33-0.01,54.66,0,82c4.33,0,8.65-0.01,12.98,0c0.01-6.67,0.02-13.33,0.04-20
		c6.65,0,13.31,0,19.96,0c0.01,6.67,0.02,13.33,0.029,20c4.33,0,8.65-0.01,12.99,0c0-27.34,0-54.67,0-82C71.66,23,56.33,23,41,23z
		 M15,71c0,11.33,0.01,22.66,0,34c7.33,0,14.67,0,22,0c-0.01-11.33-0.01-22.67,0-34C29.67,71,22.33,71,15,71z M91,71
		c0,11.33,0.01,22.66,0,34c7.33,0,14.67,0,22,0c-0.01-11.33-0.01-22.67,0-34C105.66,71,98.33,71,91,71z M58,89c0,5.33,0,10.66,0,16
		c4,0,8,0,12,0c0-5.34,0-10.67,0-16C66,89,62,89,58,89z"/>
</g>
<path fill="currentColor" d="M49,30c4.33,0,8.67,0,13,0c0,1.33,0,2.67,0,4c-4.34,0-8.67,0-13,0C49,32.67,49,31.33,49,30z"/>
<path fill="currentColor" d="M67,30c4.33,0,8.67,0,13,0c0,1.33,0,2.67,0,4c-4.34,0-8.67,0-13,0C67,32.67,67,31.33,67,30z"/>
<path fill="currentColor" d="M49,38c4.33,0,8.67,0,13,0c0,1.33,0,2.67,0,4c-4.34,0-8.67,0-13,0C49,40.67,49,39.33,49,38z"/>
<path fill="currentColor" d="M67,38c4.33,0,8.67,0,13,0c0,1.33,0,2.67,0,4c-4.34,0-8.67,0-13,0C67,40.67,67,39.33,67,38z"/>
<path fill="currentColor" d="M49,46c4.33-0.01,8.67,0,13,0c0,1.33,0,2.67,0,4c-4.34,0-8.67,0-13,0C49,48.67,49,47.33,49,46z"/>
<path fill="currentColor" d="M67,46c4.33-0.01,8.67,0,13,0c0,1.33,0,2.67,0,4c-4.34,0-8.67,0-13,0C67,48.67,67,47.33,67,46z"/>
<path fill="currentColor" d="M49,54c4.33-0.01,8.67,0,13,0c0,1.33,0,2.67,0,4c-4.34,0-8.67,0-13,0C49,56.67,49,55.33,49,54z"/>
<path fill="currentColor" d="M67,54c4.33-0.01,8.67,0,13,0c0,1.33,0,2.67,0,4c-4.34,0-8.67,0-13,0C67,56.67,67,55.33,67,54z"/>
<path fill="currentColor" d="M49,62c4.33-0.01,8.67,0,13,0c0,1.33,0,2.67,0,4c-4.34,0-8.67,0-13,0C49,64.67,49,63.33,49,62z"/>
<path fill="currentColor" d="M67,62c4.33-0.01,8.67,0,13,0c0,1.33,0,2.67,0,4c-4.34,0-8.67,0-13,0C67,64.67,67,63.33,67,62z"/>
<path fill="currentColor" d="M49,70c4.33-0.01,8.67,0,13,0c0,1.33,0,2.67,0,4c-4.34,0-8.67,0-13,0C49,72.66,49,71.33,49,70z"/>
<path fill="currentColor" d="M67,70c4.33-0.01,8.67,0,13,0c0,1.33,0,2.67,0,4c-4.34,0-8.67,0-13,0C67,72.66,67,71.33,67,70z"/>
<path fill="currentColor" d="M19,75c4.66-0.01,9.33,0,14,0c0,1.33,0,2.67,0,4c-4.67,0-9.33,0-14,0C19,77.67,19,76.33,19,75z"/>
<path fill="currentColor" d="M95,75c4.66-0.01,9.33,0,14,0c0,1.33,0,2.67,0,4c-4.67,0-9.33,0-14,0C95,77.67,95,76.33,95,75z"/>
<path fill="currentColor" d="M19,83c4.66-0.01,9.33,0,14,0c0,1.33,0,2.67,0,4c-4.67,0-9.33,0-14,0C19,85.66,19,84.33,19,83z"/>
<path fill="currentColor" d="M95,83c4.66-0.01,9.33,0,14,0c0,1.33,0,2.67,0,4c-4.67,0-9.33,0-14,0C95,85.66,95,84.33,95,83z"/>
<path fill="currentColor" d="M19,91c4.66-0.01,9.33,0,14,0c0,1.33,0,2.67,0,4c-4.67,0-9.33,0-14,0C19,93.66,19,92.33,19,91z"/>
<path fill="currentColor" d="M95,91c4.66-0.01,9.33,0,14,0c0,1.33,0,2.67,0,4c-4.67,0-9.33,0-14,0C95,93.66,95,92.33,95,91z"/>
<g>
	<path fill="#FFFFFF" d="M37.005,19c17.997,0,35.993,0,53.98,0c0.029,16-0.01,31.99,0.02,47.99C99.663,67,108.332,67,117,67.01
		C116.98,81,116.98,95,116.99,109c-35.323,0-70.657,0-105.99,0c0.02-14,0.02-28,0.01-41.99C19.668,67,28.336,67,36.995,66.99
		C37.025,50.99,36.985,35,37.005,19z M41.004,23c0,27.33-0.01,54.66,0,82c4.329,0,8.648-0.01,12.978,0c0.01-6.67,0.02-13.33,0.04-20
		c6.648,0,13.307,0,19.957,0c0.01,6.67,0.02,13.33,0.029,20c4.329,0,8.648-0.01,12.988,0c0-27.34,0-54.67,0-82
		C71.659,23,56.332,23,41.004,23z M15.009,71c0,11.33,0.01,22.66,0,34c7.329,0,14.667,0,21.996,0c-0.01-11.33-0.01-22.67,0-34
		C29.676,71,22.338,71,15.009,71z M90.995,71c0,11.33,0.01,22.66,0,34c7.329,0,14.667,0,21.996,0c-0.01-11.33-0.01-22.67,0-34
		C105.652,71,98.324,71,90.995,71z M58.001,89c0,5.33,0,10.66,0,16c4,0,7.999,0,11.998,0c0-5.34,0-10.67,0-16C66,89,62,89,58.001,89
		z"/>
</g>
<path fill="currentColor" d="M49,30c4.33,0,8.67,0,13,0c0,1.33,0,2.67,0,4c-4.34,0-8.67,0-13,0C49,32.67,49,31.33,49,30z"/>
<path fill="currentColor" d="M67,30c4.33,0,8.67,0,13,0c0,1.33,0,2.67,0,4c-4.34,0-8.67,0-13,0C67,32.67,67,31.33,67,30z"/>
<path fill="currentColor" d="M49,38c4.33,0,8.67,0,13,0c0,1.33,0,2.67,0,4c-4.34,0-8.67,0-13,0C49,40.67,49,39.33,49,38z"/>
<path fill="currentColor" d="M67,38c4.33,0,8.67,0,13,0c0,1.33,0,2.67,0,4c-4.34,0-8.67,0-13,0C67,40.67,67,39.33,67,38z"/>
<path fill="currentColor" d="M49,46c4.33-0.01,8.67,0,13,0c0,1.33,0,2.67,0,4c-4.34,0-8.67,0-13,0C49,48.67,49,47.33,49,46z"/>
<path fill="currentColor" d="M67,46c4.33-0.01,8.67,0,13,0c0,1.33,0,2.67,0,4c-4.34,0-8.67,0-13,0C67,48.67,67,47.33,67,46z"/>
<path fill="currentColor" d="M49,54c4.33-0.01,8.67,0,13,0c0,1.33,0,2.67,0,4c-4.34,0-8.67,0-13,0C49,56.67,49,55.33,49,54z"/>
<path fill="currentColor" d="M67,54c4.33-0.01,8.67,0,13,0c0,1.33,0,2.67,0,4c-4.34,0-8.67,0-13,0C67,56.67,67,55.33,67,54z"/>
<path fill="currentColor" d="M49,62c4.33-0.01,8.67,0,13,0c0,1.33,0,2.67,0,4c-4.34,0-8.67,0-13,0C49,64.67,49,63.33,49,62z"/>
<path fill="currentColor" d="M67,62c4.33-0.01,8.67,0,13,0c0,1.33,0,2.67,0,4c-4.34,0-8.67,0-13,0C67,64.67,67,63.33,67,62z"/>
<path fill="currentColor" d="M49,70c4.33-0.01,8.67,0,13,0c0,1.33,0,2.67,0,4c-4.34,0-8.67,0-13,0C49,72.66,49,71.33,49,70z"/>
<path fill="currentColor" d="M67,70c4.33-0.01,8.67,0,13,0c0,1.33,0,2.67,0,4c-4.34,0-8.67,0-13,0C67,72.66,67,71.33,67,70z"/>
<path fill="currentColor" d="M19,75c4.66-0.01,9.33,0,14,0c0,1.33,0,2.67,0,4c-4.67,0-9.33,0-14,0C19,77.67,19,76.33,19,75z"/>
<path fill="currentColor" d="M95,75c4.66-0.01,9.33,0,14,0c0,1.33,0,2.67,0,4c-4.67,0-9.33,0-14,0C95,77.67,95,76.33,95,75z"/>
<path fill="currentColor" d="M19,83c4.66-0.01,9.33,0,14,0c0,1.33,0,2.67,0,4c-4.67,0-9.33,0-14,0C19,85.66,19,84.33,19,83z"/>
<path fill="currentColor" d="M95,83c4.66-0.01,9.33,0,14,0c0,1.33,0,2.67,0,4c-4.67,0-9.33,0-14,0C95,85.66,95,84.33,95,83z"/>
<path fill="currentColor" d="M19,91c4.66-0.01,9.33,0,14,0c0,1.33,0,2.67,0,4c-4.67,0-9.33,0-14,0C19,93.66,19,92.33,19,91z"/>
<path fill="currentColor" d="M95,91c4.66-0.01,9.33,0,14,0c0,1.33,0,2.67,0,4c-4.67,0-9.33,0-14,0C95,93.66,95,92.33,95,91z"/>
<path fill="#FFFFFF" d="M7,105.004c1.332-0.01,2.666,0,4,0c0,1.328,0,2.667,0,3.995c-1.334,0-2.666,0-4,0
	C7,107.671,7,106.332,7,105.004z"/>
<path fill="#FFFFFF" d="M117,105.004c1.332-0.01,2.666,0,4,0c0,1.328,0,2.666,0,3.994c-1.334,0-2.665,0-4,0
	C117,107.67,117,106.332,117,105.004z"/>
</svg>
