<?xml version="1.0" encoding="utf-8"?>
<!-- Generator: Adobe Illustrator 16.0.3, SVG Export Plug-In . SVG Version: 6.00 Build 0)  -->
<!DOCTYPE svg PUBLIC "-//W3C//DTD SVG 1.1//EN" "http://www.w3.org/Graphics/SVG/1.1/DTD/svg11.dtd">
<svg version="1.1" id="Layer_1" xmlns="http://www.w3.org/2000/svg" xmlns:xlink="http://www.w3.org/1999/xlink" x="0px" y="0px"
	 width="128px" height="128px" viewBox="0 0 128 128" enable-background="new 0 0 128 128" xml:space="preserve">
<g>
	<path fill="#FFFFFF" d="M88.59,11.63c6.051-4.9,15.49-4.72,21.35,0.42c6.211,5.04,7.871,14.66,3.701,21.48
		c-2.961,5.3-8.9,8.4-14.881,8.54c-2.63,7.8-5.199,15.62-7.82,23.42c9.58,5.52,16,16.4,14.961,27.57
		c-0.711,14.319-13.57,26.729-27.91,26.899c-14.31,0.83-27.91-10.66-29.67-24.84c-1.5-9.29,2.16-18.8,8.8-25.31
		c-3.09-4.32-6.17-8.65-9.27-12.971c-5.46,2.96-12.04,4.1-18.06,2.28c-7.83-2.05-14.37-8.34-16.66-16.11
		c-2.56-7.58-0.58-16.32,4.54-22.38c5.61-6.8,15.22-10.15,23.8-7.95c8.44,1.93,15.39,8.72,17.67,17.04
		c7.6-1.5,15.19-3.02,22.78-4.55C82.13,19.98,84.37,14.79,88.59,11.63z M95.37,12.56c-6.42,1.71-10.64,8.86-9.021,15.31
		c1.33,6.51,8.23,11.18,14.78,9.92c6.851-0.97,11.97-8.09,10.66-14.89C110.79,15.46,102.52,10.21,95.37,12.56z M31.48,16.57
		c-8.09,1.78-14.58,9.07-15.3,17.34c-0.88,7.35,2.81,14.96,9.07,18.89c5.94,3.88,13.98,4.18,20.19,0.76
		c5.72-3.03,9.77-9,10.38-15.45c0.75-6.39-1.89-13.03-6.79-17.2C44.32,16.76,37.58,15.13,31.48,16.57z M59.96,33.66
		c0.63,7.87-2.7,15.9-8.82,20.92c3.05,4.22,6.07,8.47,9.09,12.72c7.79-5.49,18.15-6.75,27.081-3.47
		c2.439-7.47,4.93-14.91,7.439-22.35c-5.92-1.62-10.689-6.42-12.26-12.35C74.98,30.66,67.46,32.13,59.96,33.66z M71.49,66.66
		C59,69.26,49.99,82.471,52.35,95.05c1.97,13.431,16.14,23.45,29.46,20.45c13.59-2.391,23.27-17.38,19.34-30.721
		C98.17,72.109,84.16,63.41,71.49,66.66z"/>
</g>
<path fill="currentColor" d="M97.21,16.2c1.53-0.48,3.761-0.21,3.81,1.81c-0.229,2.43-3.359,1.82-4.899,2.97
	c-1.899,1.18-1.8,3.66-2.72,5.47c-1,0.97-2.551,0.54-3.271-0.54C89.43,21.47,92.85,17,97.21,16.2z"/>
<path fill="currentColor" d="M31.49,20.69c2.04-0.34,5.02-1.65,6.42,0.53c0.78,2.55-2.2,2.9-3.98,3.06c-5.71,0.73-9.82,6.14-10.01,11.73
	c0.14,2.12-2.93,2.69-3.78,0.86C19.45,29.69,24.6,22.61,31.49,20.69z"/>
<path fill="currentColor" d="M71.58,70.77c2.061-0.5,4.21-0.879,6.34-0.609c1.78,0.89,1.17,3.91-0.9,3.77
	C71.141,74.16,65.33,77.2,62.39,82.41c-1.87,2.82-2.1,6.24-2.62,9.48c-0.69,1.51-2.92,1.389-3.63-0.031
	C55.44,82.34,62.36,73.08,71.58,70.77z"/>
</svg>
