<?xml version="1.0" encoding="utf-8"?>
<!-- Generator: Adobe Illustrator 18.1.1, SVG Export Plug-In . SVG Version: 6.00 Build 0)  -->
<svg version="1.1" id="Layer_1" xmlns="http://www.w3.org/2000/svg" xmlns:xlink="http://www.w3.org/1999/xlink" x="0px" y="0px"
	 viewBox="-41 15 128 128" enable-background="new -41 15 128 128" xml:space="preserve">
<rect x="-2" y="44" fill="currentColor" width="28" height="4"/>
<rect x="-2" y="32" fill="currentColor" width="28" height="4"/>
<path fill="#FFFFFF" d="M38,15H-6c-4.4,0-8,3.6-8,8v92c0,4.4,3.6,8,8,8h32v20l10-10l10,10v-20h8c4.4,0,8-3.6,8-8V43L38,15z M38,21
	l18.8,22H42c-2,0-4-2-4-4V21z M42,133.4l-6-6l-6,6v-15.6c2,0.8,4,1.2,6,1.2s4-0.4,6-1.2V133.4L42,133.4z M36,115
	c-5.6,0-10-4.4-10-10s4.4-10,10-10c5.6,0,10,4.4,10,10S41.6,115,36,115z M58,115c0,2-1.6,4-4,4h-8v-4.4c2.4-2.4,4-6,4-9.6
	c0-7.6-6.4-14-14-14c-7.6,0-14,6.4-14,14c0,4,1.6,7.2,4,9.6v4.4H-6c-2,0-4-1.6-4-4V23c0-2,1.6-4,4-4h40v20c0,4.4,3.6,8,8,8h16V115
	L58,115z"/>
<rect x="-2" y="55" fill="currentColor" width="52" height="4"/>
<rect x="-2" y="79" fill="currentColor" width="52" height="4"/>
<rect x="-2" y="67" fill="currentColor" width="52" height="4"/>
</svg>
