<?xml version="1.0" encoding="utf-8"?>
<!-- Generator: Adobe Illustrator 16.0.3, SVG Export Plug-In . SVG Version: 6.00 Build 0)  -->
<!DOCTYPE svg PUBLIC "-//W3C//DTD SVG 1.1//EN" "http://www.w3.org/Graphics/SVG/1.1/DTD/svg11.dtd">
<svg version="1.1" id="Layer_1" xmlns="http://www.w3.org/2000/svg" xmlns:xlink="http://www.w3.org/1999/xlink" x="0px" y="0px"
	 width="64px" height="64px" viewBox="0 0 64 64" enable-background="new 0 0 64 64" xml:space="preserve">
<g>
	<path fill="currentColor" d="M32,0C14.327,0,0,14.327,0,32c0,17.673,14.327,32,32,32s32-14.327,32-32C64,14.327,49.673,0,32,0z
		 M48.232,35.461c1.491,1.457,3.069,2.828,4.408,4.436c0.594,0.711,1.152,1.446,1.578,2.273c0.607,1.179,0.059,2.472-0.997,2.542
		l-6.556-0.002c-1.693,0.141-3.041-0.542-4.176-1.7c-0.907-0.922-1.749-1.907-2.622-2.861c-0.356-0.392-0.732-0.761-1.181-1.051
		c-0.894-0.581-1.67-0.403-2.183,0.53c-0.521,0.95-0.641,2.003-0.69,3.061c-0.071,1.546-0.537,1.949-2.088,2.022
		c-3.315,0.155-6.459-0.348-9.382-2.019c-2.578-1.474-4.574-3.555-6.313-5.908c-3.386-4.592-5.979-9.63-8.31-14.814
		c-0.525-1.167-0.141-1.792,1.147-1.816c2.14-0.042,4.279-0.036,6.419-0.002c0.871,0.014,1.447,0.512,1.781,1.334
		c1.157,2.845,2.574,5.551,4.35,8.062c0.474,0.668,0.957,1.335,1.645,1.807c0.759,0.521,1.338,0.349,1.696-0.499
		c0.229-0.539,0.328-1.115,0.378-1.692c0.17-1.978,0.19-3.955-0.104-5.925c-0.183-1.233-0.876-2.029-2.105-2.262
		c-0.626-0.119-0.534-0.35-0.229-0.708c0.528-0.618,1.023-1,2.012-1l7.406-0.001c1.168,0.229,1.43,0.753,1.589,1.929l0.006,8.231
		c-0.014,0.455,0.229,1.804,1.047,2.102c0.654,0.216,1.086-0.309,1.478-0.724c1.776-1.885,3.042-4.109,4.176-6.412
		c0.5-1.016,0.932-2.066,1.35-3.119c0.313-0.779,0.797-1.162,1.676-1.148l7.132,0.008c0.211,0,0.424,0.002,0.632,0.038
		c1.202,0.206,1.531,0.723,1.159,1.896c-0.585,1.842-1.723,3.377-2.833,4.916c-1.192,1.647-2.464,3.237-3.644,4.892
		C46.801,33.386,46.886,34.147,48.232,35.461z"/>
</g>
</svg>
