<svg xmlns="http://www.w3.org/2000/svg" width="44" height="44" viewBox="0 0 44 44"><path fill="currentColor" d="M29.86 14.14c-.54-.543-1.42-.543-1.96 0l-5.907 5.907-5.826-5.826c-.538-.537-1.408-.537-1.944 0-.538.54-.538 1.41 0 1.945l5.826 5.826-5.867 5.867c-.542.542-.542 1.42 0 1.96s1.42.54 1.96 0l5.865-5.866 5.825 5.827c.538.537 1.408.537 1.944 0 .538-.538.538-1.408 0-1.944l-5.826-5.826 5.91-5.908c.542-.542.542-1.42 0-1.96zM22 0C9.85 0 0 9.85 0 22s9.85 22 22 22 22-9.85 22-22S34.15 0 22 0zm0 41.25C11.37 41.25 2.75 32.632 2.75 22 2.75 11.37 11.37 2.75 22 2.75c10.632 0 19.25 8.62 19.25 19.25 0 10.632-8.618 19.25-19.25 19.25z"/></svg>