<svg xmlns="http://www.w3.org/2000/svg" width="32" height="32" viewBox="0 0 32 32"><g fill="currentColor"><path d="M30.977 30.297h-11.12c3.813-1.465 6.623-4.966 7.072-9.17h1.09c2.194 0 3.98-1.786 3.98-3.98 0-2.193-1.786-3.98-3.98-3.98H5.605c-.45 0-.812.364-.812.812v5.962c0 4.724 2.97 8.756 7.138 10.356H.81c-.447 0-.81.362-.81.81 0 .446.363.81.81.81h30.167c.448 0 .812-.363.812-.81-.002-.448-.365-.81-.813-.81zm-.6-13.15c0 1.3-1.057 2.357-2.357 2.357h-1.026v-4.716h1.026c1.3 0 2.358 1.058 2.358 2.36zM6.418 19.94v-5.15H25.37v5.15c0 5.227-4.252 9.48-9.478 9.48s-9.478-4.253-9.478-9.48zM9.63 5.02c.942.4 1.487.86 1.534 1.3.07.652-.83 1.504-1.275 1.815-.37.255-.46.76-.206 1.127.158.23.41.35.668.35.158 0 .32-.046.46-.144.22-.152 2.148-1.537 1.966-3.313-.11-1.09-.958-1.974-2.497-2.623-.402-.18-.854-.57-.85-.73 0-.004.092-.49 1.822-1.15.418-.162.628-.63.468-1.05-.16-.416-.628-.626-1.048-.466C8.777.86 7.84 1.716 7.81 2.752c-.043 1.383 1.612 2.174 1.82 2.27zM15.225 5.02c.943.4 1.488.86 1.533 1.3.07.652-.83 1.504-1.274 1.815-.368.254-.46.758-.206 1.127.158.23.41.35.67.35.157 0 .318-.046.458-.144.22-.152 2.148-1.537 1.966-3.313-.11-1.09-.958-1.974-2.497-2.623-.402-.182-.855-.572-.85-.732 0-.004.092-.49 1.82-1.15.42-.162.628-.63.47-1.05-.16-.416-.628-.626-1.048-.466-1.896.725-2.832 1.582-2.863 2.618-.042 1.383 1.612 2.174 1.82 2.27zM20.667 5.02c.942.4 1.486.86 1.533 1.3.07.652-.83 1.504-1.274 1.815-.368.254-.46.758-.206 1.127.158.23.41.35.668.35.16 0 .32-.046.46-.144.222-.152 2.15-1.537 1.968-3.313-.112-1.09-.96-1.974-2.498-2.623-.403-.182-.855-.572-.852-.732 0-.004.093-.49 1.823-1.15.417-.162.627-.63.467-1.05-.16-.416-.628-.626-1.05-.466-1.894.725-2.83 1.582-2.86 2.618-.042 1.383 1.61 2.174 1.82 2.27z"/></g></svg>