<svg xmlns="http://www.w3.org/2000/svg" width="32" height="32" viewBox="0 0 32 32"><g fill="currentColor"><path d="M26.465 3.768h-4.27V.99c0-.558-.452-.99-1.01-.99-.056 0-.092.018-.11.036C21.058.018 21.022 0 21.004 0H10.818c-.56 0-.992.433-.992.99v2.777h-4.29c-1.226 0-2.18.956-2.18 2.182v3.568h1.892v20.317c0 1.227.937 2.165 2.163 2.165h17.18c1.227 0 2.182-.938 2.182-2.164V9.52h1.875V5.948c0-1.227-.956-2.182-2.182-2.182zM11.808 1.983h8.383v1.785H11.81V1.983zM24.77 29.836c0 .127-.055.18-.18.18H7.41c-.126 0-.18-.053-.18-.18V9.52h17.542v20.316zm1.876-22.3H5.354V5.95c0-.127.054-.2.18-.2h20.93c.126 0 .18.073.18.2v1.586h.002z"/><path d="M19.633 11.844h2V28.25h-2zM15.018 11.844h2V28.25h-2zM10.402 11.844h2V28.25h-2z"/></g></svg>