<svg xmlns="http://www.w3.org/2000/svg" width="128" height="128" viewBox="0 0 128 128"><path fill="#FFF" d="M37 19h53.99c.03 16-.01 31.99.02 47.99 8.66.01 17.33.01 26 .02C116.99 81 116.99 95 117 109H10.99c.02-14 .02-28 .01-41.99 8.66-.01 17.33-.01 25.99-.02.03-16-.01-31.99.01-47.99zm4 4c0 27.33-.01 54.66 0 82 4.33 0 8.65-.01 12.98 0 .01-6.67.02-13.33.04-20h19.96l.03 20c4.33 0 8.65-.01 12.99 0V23H41zM15 71c0 11.33.01 22.66 0 34h22c-.01-11.33-.01-22.67 0-34H15zm76 0c0 11.33.01 22.66 0 34h22c-.01-11.33-.01-22.67 0-34H91zM58 89v16h12V89H58z"/><path fill="currentColor" d="M49 30h13v4H49v-4zM67 30h13v4H67v-4zM49 38h13v4H49v-4zM67 38h13v4H67v-4zM49 46c4.33-.01 8.67 0 13 0v4H49v-4zM67 46c4.33-.01 8.67 0 13 0v4H67v-4zM49 54c4.33-.01 8.67 0 13 0v4H49v-4zM67 54c4.33-.01 8.67 0 13 0v4H67v-4zM49 62c4.33-.01 8.67 0 13 0v4H49v-4zM67 62c4.33-.01 8.67 0 13 0v4H67v-4zM49 70c4.33-.01 8.67 0 13 0v4H49v-4zM67 70c4.33-.01 8.67 0 13 0v4H67v-4zM19 75c4.66-.01 9.33 0 14 0v4H19v-4zM95 75c4.66-.01 9.33 0 14 0v4H95v-4zM19 83c4.66-.01 9.33 0 14 0v4H19v-4zM95 83c4.66-.01 9.33 0 14 0v4H95v-4zM19 91c4.66-.01 9.33 0 14 0v4H19v-4zM95 91c4.66-.01 9.33 0 14 0v4H95v-4z"/><path fill="#FFF" d="M37.005 19h53.98c.03 16-.01 31.99.02 47.99 8.658.01 17.327.01 25.995.02-.02 13.99-.02 27.99-.01 41.99H11c.02-14 .02-28 .01-41.99 8.658-.01 17.326-.01 25.985-.02.03-16-.01-31.99.01-47.99zm4 4c0 27.33-.01 54.66 0 82 4.328 0 8.647-.01 12.977 0 .01-6.67.02-13.33.04-20H73.98c.01 6.67.02 13.33.028 20 4.33 0 8.648-.01 12.988 0V23H41.004zM15.008 71c0 11.33.01 22.66 0 34h21.995c-.01-11.33-.01-22.67 0-34H15.01zm75.985 0c0 11.33.01 22.66 0 34h21.996c-.01-11.33-.01-22.67 0-34H90.996zM58 89v16h12V89H58z"/><path fill="currentColor" d="M49 30h13v4H49v-4zM67 30h13v4H67v-4zM49 38h13v4H49v-4zM67 38h13v4H67v-4zM49 46c4.33-.01 8.67 0 13 0v4H49v-4zM67 46c4.33-.01 8.67 0 13 0v4H67v-4zM49 54c4.33-.01 8.67 0 13 0v4H49v-4zM67 54c4.33-.01 8.67 0 13 0v4H67v-4zM49 62c4.33-.01 8.67 0 13 0v4H49v-4zM67 62c4.33-.01 8.67 0 13 0v4H67v-4zM49 70c4.33-.01 8.67 0 13 0v4H49v-4zM67 70c4.33-.01 8.67 0 13 0v4H67v-4zM19 75c4.66-.01 9.33 0 14 0v4H19v-4zM95 75c4.66-.01 9.33 0 14 0v4H95v-4zM19 83c4.66-.01 9.33 0 14 0v4H19v-4zM95 83c4.66-.01 9.33 0 14 0v4H95v-4zM19 91c4.66-.01 9.33 0 14 0v4H19v-4zM95 91c4.66-.01 9.33 0 14 0v4H95v-4z"/><path fill="#FFF" d="M7 105.004c1.332-.01 2.666 0 4 0V109H7v-3.996zM117 105.004c1.332-.01 2.666 0 4 0v3.994h-4v-3.994z"/></svg>