<svg xmlns="http://www.w3.org/2000/svg" width="128" height="128" viewBox="0 0 128 128"><path fill="#FFF" d="M88.59 11.63c6.05-4.9 15.49-4.72 21.35.42 6.21 5.04 7.87 14.66 3.7 21.48-2.96 5.3-8.9 8.4-14.88 8.54-2.63 7.8-5.2 15.62-7.82 23.42 9.58 5.52 16 16.4 14.96 27.57-.71 14.32-13.57 26.73-27.91 26.9-14.31.83-27.91-10.66-29.67-24.84-1.5-9.29 2.16-18.8 8.8-25.31-3.09-4.32-6.17-8.65-9.27-12.972-5.46 2.96-12.04 4.1-18.06 2.28-7.83-2.05-14.37-8.34-16.66-16.11-2.56-7.58-.58-16.32 4.54-22.38 5.61-6.8 15.22-10.15 23.8-7.95 8.44 1.93 15.39 8.72 17.67 17.04 7.6-1.5 15.19-3.02 22.78-4.55.21-5.188 2.45-10.378 6.67-13.538zm6.78.93c-6.42 1.71-10.64 8.86-9.02 15.31 1.33 6.51 8.23 11.18 14.78 9.92 6.85-.97 11.97-8.09 10.66-14.89-1-7.44-9.27-12.69-16.42-10.34zm-63.89 4.01c-8.09 1.78-14.58 9.07-15.3 17.34-.88 7.35 2.81 14.96 9.07 18.89 5.94 3.88 13.98 4.18 20.19.76 5.72-3.03 9.77-9 10.38-15.45.75-6.39-1.89-13.03-6.79-17.2-4.71-4.15-11.45-5.78-17.55-4.34zm28.48 17.09c.63 7.87-2.7 15.9-8.82 20.92 3.05 4.22 6.07 8.47 9.09 12.72 7.79-5.49 18.15-6.75 27.08-3.47 2.44-7.47 4.93-14.91 7.44-22.35-5.92-1.62-10.69-6.42-12.26-12.35-7.51 1.53-15.03 3-22.53 4.53zm11.53 33C59 69.26 49.99 82.47 52.35 95.05c1.97 13.43 16.14 23.45 29.46 20.45 13.59-2.39 23.27-17.38 19.34-30.72-2.98-12.67-16.99-21.37-29.66-18.12z"/><path fill="currentColor" d="M97.21 16.2c1.53-.48 3.76-.21 3.81 1.81-.23 2.43-3.36 1.82-4.9 2.97-1.898 1.18-1.8 3.66-2.72 5.47-1 .97-2.55.54-3.27-.54-.7-4.44 2.72-8.91 7.08-9.71zM31.49 20.69c2.04-.34 5.02-1.65 6.42.53.78 2.55-2.2 2.9-3.98 3.06-5.71.73-9.82 6.14-10.01 11.73.14 2.12-2.93 2.69-3.78.86-.69-7.18 4.46-14.26 11.35-16.18zM71.58 70.77c2.06-.5 4.21-.88 6.34-.61 1.78.89 1.17 3.91-.9 3.77-5.88.23-11.69 3.27-14.63 8.48-1.87 2.82-2.1 6.24-2.62 9.48-.69 1.51-2.92 1.39-3.63-.03-.7-9.52 6.22-18.78 15.44-21.09z"/></svg>