<svg xmlns="http://www.w3.org/2000/svg" width="128" height="128" viewBox="0 0 128 128"><path fill="#FFF" d="M52.547 21.364c5.772-5.097 15.097-5.097 20.86 0 3.268 2.616 4.723 6.69 6.088 10.524 10.128.238 20.258-.125 30.377.124 3.624-.04 7.126 2.636 7.787 6.296.54 3.37.274 6.792.314 10.193-.04 17.256-.03 34.51 0 51.763.02 2.76-.284 5.843-2.412 7.827-1.954 2.15-4.988 2.47-7.707 2.45-29.237-.032-58.474-.042-87.71 0-2.72.02-5.753-.3-7.707-2.45-2.423-2.253-2.434-5.812-2.434-8.892.132-19.683-.082-39.366.102-59.05-.112-4.383 3.695-8.24 8.012-8.137 9.447-.247 18.904.115 28.352-.123 1.364-3.833 2.82-7.907 6.077-10.523zm-1.863 10.41c8.195.29 16.4.29 24.595 0-1.63-5.52-6.354-10.358-12.35-10.14-5.965-.176-10.617 4.66-12.246 10.14zM16.56 36.51c-2.35.786-2.422 3.62-2.452 5.696-.02 7.6-.02 15.208.05 22.806 4.398.02 8.797.03 13.194.073v4.03c-4.397.043-8.796.053-13.204.072.01 11.01-.193 22.032.082 33.04-.183 2.76 2.463 4.373 4.917 4.127 28.88.113 57.762-.052 86.643.07 2.097-.112 4.387.208 6.332-.795 2.066-1.388 1.64-4.24 1.79-6.4-.07-10.017.033-20.035-.06-30.043-4.743-.03-9.487-.02-14.222-.07-.01-1.344-.01-2.69 0-4.032 4.734-.053 9.48-.042 14.223-.073-.08-8.55.356-17.13-.194-25.66-.266-2.894-3.513-3.37-5.804-3.276-27.17 0-54.34.04-81.512-.01-3.258.072-6.587-.31-9.783.444z"/><path fill="currentColor" d="M31.454 58.86c4.05-.072 8.104-.072 12.155 0 .07 5.84.07 11.674 0 17.514-4.053.07-8.105.07-12.156 0-.07-5.84-.07-11.672 0-17.514zm4.072 4.105c-.05 3.1-.05 6.203 0 9.303 1.333.01 2.678.01 4.01 0 .042-3.1.042-6.202 0-9.303-1.332-.01-2.677-.01-4.01 0zM83.372 58.86c4.052-.072 8.104-.072 12.156 0 .07 5.84.07 11.674 0 17.514-4.052.07-8.104.07-12.156 0-.07-5.84-.07-11.672 0-17.514zm4.072 4.105c-.05 3.1-.05 6.203 0 9.303 1.334.01 2.678.01 4.012 0 .04-3.1.04-6.202 0-9.303-1.344-.01-2.678-.01-4.012 0z"/><path fill="#FFF" d="M47.712 65.095c10.516-.103 21.042-.103 31.56 0v4.01c-10.518.104-21.043.104-31.56 0-.01-1.332-.01-2.676 0-4.01z"/></svg>