<svg xmlns="http://www.w3.org/2000/svg" viewBox="-41 15 128 128"><path fill="currentColor" d="M-2 44h28v4H-2zM-2 32h28v4H-2z"/><path fill="#FFF" d="M38 15H-6c-4.4 0-8 3.6-8 8v92c0 4.4 3.6 8 8 8h32v20l10-10 10 10v-20h8c4.4 0 8-3.6 8-8V43L38 15zm0 6l18.8 22H42c-2 0-4-2-4-4V21zm4 112.4l-6-6-6 6v-15.6c2 .8 4 1.2 6 1.2s4-.4 6-1.2v15.6zM36 115c-5.6 0-10-4.4-10-10s4.4-10 10-10 10 4.4 10 10-4.4 10-10 10zm22 0c0 2-1.6 4-4 4h-8v-4.4c2.4-2.4 4-6 4-9.6 0-7.6-6.4-14-14-14s-14 6.4-14 14c0 4 1.6 7.2 4 9.6v4.4H-6c-2 0-4-1.6-4-4V23c0-2 1.6-4 4-4h40v20c0 4.4 3.6 8 8 8h16v68z"/><path fill="currentColor" d="M-2 55h52v4H-2zM-2 79h52v4H-2zM-2 67h52v4H-2z"/></svg>