<svg xmlns="http://www.w3.org/2000/svg" width="64" height="64" viewBox="0 0 64 64"><path fill="currentColor" d="M32 0C14.327 0 0 14.327 0 32c0 17.673 14.327 32 32 32s32-14.327 32-32C64 14.327 49.673 0 32 0zm16.232 35.46c1.49 1.458 3.07 2.83 4.408 4.437.594.71 1.152 1.446 1.578 2.273.607 1.18.06 2.472-.997 2.542l-6.555-.002c-1.693.14-3.04-.542-4.176-1.7-.908-.922-1.75-1.907-2.623-2.86-.356-.393-.732-.762-1.18-1.052-.895-.58-1.67-.403-2.184.53-.52.95-.64 2.003-.69 3.06-.07 1.547-.537 1.95-2.088 2.023-3.315.156-6.46-.347-9.382-2.018-2.578-1.474-4.574-3.555-6.313-5.908-3.386-4.592-5.98-9.63-8.31-14.814-.525-1.167-.14-1.792 1.147-1.816 2.14-.042 4.28-.036 6.42-.002.87.014 1.446.512 1.78 1.334 1.157 2.845 2.574 5.55 4.35 8.062.474.668.957 1.335 1.645 1.807.76.52 1.338.35 1.696-.5.23-.538.328-1.114.378-1.69.17-1.98.19-3.956-.104-5.926-.183-1.234-.876-2.03-2.105-2.263-.626-.12-.534-.35-.23-.708.53-.62 1.024-1 2.013-1l7.406-.002c1.168.23 1.43.753 1.59 1.93l.005 8.23c-.013.455.23 1.804 1.048 2.102.654.216 1.086-.31 1.478-.724 1.776-1.885 3.042-4.11 4.176-6.412.5-1.016.932-2.066 1.35-3.12.313-.778.797-1.16 1.676-1.147l7.132.008c.21 0 .424.002.632.038 1.202.206 1.53.723 1.16 1.896-.586 1.84-1.724 3.376-2.834 4.915-1.192 1.647-2.464 3.237-3.644 4.892-1.083 1.51-.998 2.27.348 3.584z"/></svg>